<svg id="vector" viewBox="0 0 5500 5500" xmlns="http://www.w3.org/2000/svg">
    <path
        d="M 2460 5270 C 1990 5212 1535 5022 1160 4726 C 1058 4645 839 4424 759 4320 C 518 4010 346 3643 271 3280 C 201 2948 201 2552 271 2220 C 346 1857 518 1491 759 1180 C 844 1070 1071 843 1181 758 C 1414 577 1682 434 1950 346 C 2131 286 2251 259 2440 234 C 2613 212 2983 219 3156 249 C 3684 339 4126 561 4513 929 C 4862 1261 5131 1746 5229 2220 C 5299 2552 5299 2948 5229 3280 C 5153 3648 4972 4028 4726 4340 C 4645 4442 4424 4661 4320 4741 C 3974 5009 3599 5175 3165 5252 C 3039 5274 2590 5285 2460 5270 Z M 3005 5039 C 3504 4987 3978 4763 4349 4405 C 4703 4062 4932 3634 5021 3142 C 5063 2912 5058 2521 5009 2300 C 4998 2246 4997 2246 4980 2268 C 4966 2284 4960 2317 4955 2397 C 4939 2647 4873 2806 4716 2969 C 4499 3193 4216 3300 3836 3300 C 3505 3300 3291 3233 3126 3079 C 3007 2968 2945 2856 2892 2660 C 2869 2573 2867 2543 2862 2302 L 2858 2040 L 2828 2015 C 2786 1980 2714 1980 2672 2015 L 2642 2040 L 2638 2302 C 2633 2544 2631 2573 2607 2660 C 2554 2861 2493 2969 2372 3081 C 2207 3233 1991 3300 1659 3300 C 1285 3300 1000 3192 784 2969 C 627 2806 561 2647 545 2397 C 540 2317 534 2284 520 2268 C 503 2246 502 2246 491 2300 C 458 2451 448 2585 453 2810 C 459 3041 472 3143 519 3326 C 658 3870 1008 4357 1485 4675 C 1624 4767 1860 4881 2020 4934 C 2350 5042 2657 5075 3005 5039 Z M 1685 2993 C 1705 2976 1724 2970 1761 2970 C 1803 2970 1816 2975 1841 2999 C 1857 3015 1870 3036 1870 3044 C 1870 3063 1881 3061 1995 3028 C 2098 2999 2171 2956 2238 2886 C 2305 2817 2339 2756 2368 2655 C 2401 2542 2403 2530 2384 2530 C 2376 2530 2355 2517 2339 2501 C 2314 2476 2310 2464 2310 2420 C 2310 2376 2314 2364 2339 2339 C 2356 2322 2379 2310 2394 2310 L 2420 2310 L 2420 2200 C 2420 2094 2419 2090 2399 2090 C 2387 2090 2363 2081 2346 2071 C 2329 2060 2266 2042 2205 2030 C 2116 2012 2095 2010 2091 2021 C 2089 2029 2074 2047 2059 2062 C 2036 2085 2023 2090 1980 2090 C 1936 2090 1924 2086 1899 2061 C 1883 2045 1870 2023 1870 2012 C 1870 1987 1851 1984 1738 1988 C 1658 1991 1650 1993 1650 2012 C 1650 2023 1637 2045 1621 2061 C 1596 2086 1584 2090 1540 2090 C 1496 2090 1484 2086 1459 2061 C 1443 2045 1430 2022 1430 2009 C 1430 1989 1427 1988 1378 1994 C 1349 1997 1299 2000 1268 2000 C 1222 2000 1210 2003 1210 2016 C 1210 2024 1197 2045 1181 2061 C 1156 2086 1144 2090 1099 2090 C 1053 2090 1044 2086 1015 2056 L 982 2021 L 870 2036 C 790 2046 750 2056 732 2070 C 719 2081 696 2090 683 2090 L 659 2090 L 689 2128 C 742 2193 760 2251 776 2396 C 784 2471 792 2536 796 2541 C 799 2546 809 2546 820 2540 C 830 2535 860 2530 885 2530 C 923 2530 937 2535 961 2559 C 985 2584 990 2597 990 2637 C 990 2693 971 2726 929 2744 L 900 2756 L 945 2800 C 978 2833 990 2840 990 2826 C 990 2816 1003 2795 1019 2779 C 1044 2754 1056 2750 1100 2750 C 1144 2750 1156 2754 1181 2779 C 1205 2804 1210 2817 1210 2858 C 1210 2893 1204 2915 1189 2934 C 1177 2949 1169 2962 1171 2964 C 1173 2966 1189 2974 1205 2983 C 1231 2996 1238 2996 1255 2984 C 1265 2976 1296 2970 1323 2970 C 1363 2970 1376 2975 1398 2998 C 1413 3013 1430 3034 1435 3043 C 1443 3057 1465 3062 1545 3068 L 1645 3075 L 1652 3045 C 1655 3029 1670 3005 1685 2993 Z M 4065 3043 C 4071 3034 4087 3013 4102 2998 C 4124 2975 4137 2970 4177 2970 C 4204 2970 4235 2976 4245 2984 C 4262 2996 4269 2996 4295 2983 C 4311 2974 4327 2966 4329 2964 C 4331 2962 4323 2949 4311 2934 C 4296 2915 4290 2893 4290 2858 C 4290 2817 4295 2804 4319 2779 C 4344 2754 4356 2750 4400 2750 C 4444 2750 4456 2754 4481 2779 C 4497 2795 4510 2816 4510 2826 C 4510 2840 4522 2833 4555 2800 L 4600 2756 L 4571 2744 C 4529 2726 4510 2693 4510 2637 C 4510 2597 4515 2584 4539 2559 C 4563 2535 4577 2530 4615 2530 C 4640 2530 4670 2535 4680 2540 C 4691 2546 4701 2546 4704 2541 C 4708 2536 4716 2471 4724 2396 C 4740 2251 4758 2193 4811 2128 L 4841 2090 L 4817 2090 C 4804 2090 4781 2081 4768 2070 C 4750 2056 4710 2046 4630 2036 L 4518 2021 L 4485 2056 C 4456 2086 4447 2090 4401 2090 C 4356 2090 4344 2086 4319 2061 C 4303 2045 4290 2024 4290 2016 C 4290 2003 4278 2000 4233 2000 C 4201 2000 4151 1997 4123 1994 C 4073 1988 4070 1989 4070 2009 C 4070 2022 4057 2045 4041 2061 C 4016 2086 4004 2090 3960 2090 C 3916 2090 3904 2086 3879 2061 C 3863 2045 3850 2023 3850 2012 C 3850 1993 3842 1991 3763 1988 C 3649 1984 3630 1987 3630 2012 C 3630 2023 3617 2045 3601 2061 C 3576 2086 3564 2090 3520 2090 C 3477 2090 3464 2085 3441 2062 C 3426 2047 3411 2029 3409 2021 C 3405 2010 3384 2012 3295 2030 C 3234 2042 3171 2060 3154 2071 C 3137 2081 3113 2090 3101 2090 C 3081 2090 3080 2094 3080 2200 L 3080 2310 L 3106 2310 C 3121 2310 3144 2322 3161 2339 C 3186 2364 3190 2376 3190 2420 C 3190 2464 3186 2476 3161 2501 C 3145 2517 3124 2530 3116 2530 C 3097 2530 3099 2542 3132 2655 C 3161 2756 3195 2817 3262 2886 C 3329 2956 3402 2999 3505 3028 C 3619 3061 3630 3063 3630 3044 C 3630 3036 3643 3015 3659 2999 C 3684 2974 3696 2970 3740 2970 C 3784 2970 3796 2974 3821 2999 C 3837 3015 3850 3039 3850 3052 L 3850 3076 L 3953 3068 C 4034 3062 4057 3057 4065 3043 Z M 2521 1834 C 2528 1826 2557 1806 2584 1792 C 2631 1767 2645 1765 2750 1765 C 2855 1765 2869 1767 2916 1792 C 2943 1806 2972 1826 2979 1834 C 2998 1856 3021 1854 3198 1816 C 3454 1760 3494 1757 3915 1763 C 4307 1769 4537 1785 4748 1821 C 4811 1831 4864 1840 4866 1840 C 4876 1840 4737 1579 4682 1495 C 4506 1224 4237 961 3959 789 C 3765 668 3505 561 3275 507 C 2948 429 2552 429 2225 507 C 1995 561 1735 668 1541 789 C 1263 961 994 1224 818 1495 C 763 1579 624 1840 634 1840 C 636 1840 689 1831 752 1821 C 962 1785 1193 1769 1581 1763 C 2000 1757 2053 1761 2295 1815 C 2466 1853 2502 1856 2521 1834 Z"
        fill="#ffffff" id="path" stroke="#00000000" />
    <path
        d="M 2467 4384 C 2323 4362 2192 4323 2085 4270 C 1952 4205 1889 4156 1871 4104 C 1858 4067 1859 4060 1876 4024 C 1899 3976 1955 3945 1999 3955 C 2016 3958 2046 3975 2067 3992 C 2156 4063 2328 4128 2497 4156 C 2623 4176 2882 4175 3029 4155 C 3348 4110 3669 3982 3931 3794 C 3976 3762 4062 3689 4121 3632 C 4245 3513 4278 3497 4338 3527 C 4362 3539 4382 3559 4394 3583 C 4424 3645 4407 3680 4297 3787 C 3964 4109 3518 4321 3040 4386 C 2907 4403 2585 4403 2467 4384 Z"
        fill="#ffffff" id="path_1" stroke="#00000000" />
    <path
        d="M 1459 2941 C 1434 2916 1430 2904 1430 2860 C 1430 2816 1434 2804 1459 2779 C 1484 2754 1496 2750 1540 2750 C 1584 2750 1596 2754 1621 2779 C 1646 2804 1650 2816 1650 2860 C 1650 2904 1646 2916 1621 2941 C 1596 2966 1584 2970 1540 2970 C 1496 2970 1484 2966 1459 2941 Z"
        fill="#ffffff" id="path_2" stroke="#00000000" />
    <path
        d="M 1899 2941 C 1874 2916 1870 2904 1870 2860 C 1870 2816 1874 2804 1899 2779 C 1924 2754 1936 2750 1980 2750 C 2024 2750 2036 2754 2061 2779 C 2086 2804 2090 2816 2090 2860 C 2090 2904 2086 2916 2061 2941 C 2036 2966 2024 2970 1980 2970 C 1936 2970 1924 2966 1899 2941 Z"
        fill="#ffffff" id="path_3" stroke="#00000000" />
    <path
        d="M 1239 2721 C 1214 2696 1210 2684 1210 2640 C 1210 2596 1214 2584 1239 2559 C 1264 2534 1276 2530 1320 2530 C 1364 2530 1376 2534 1401 2559 C 1426 2584 1430 2596 1430 2640 C 1430 2684 1426 2696 1401 2721 C 1376 2746 1364 2750 1320 2750 C 1276 2750 1264 2746 1239 2721 Z"
        fill="#ffffff" id="path_4" stroke="#00000000" />
    <path
        d="M 1679 2721 C 1654 2696 1650 2684 1650 2640 C 1650 2596 1654 2584 1679 2559 C 1704 2534 1716 2530 1760 2530 C 1804 2530 1816 2534 1841 2559 C 1866 2584 1870 2596 1870 2640 C 1870 2684 1866 2696 1841 2721 C 1816 2746 1804 2750 1760 2750 C 1716 2750 1704 2746 1679 2721 Z"
        fill="#ffffff" id="path_5" stroke="#00000000" />
    <path
        d="M 2119 2721 C 2094 2696 2090 2684 2090 2640 C 2090 2596 2094 2584 2119 2559 C 2144 2534 2156 2530 2200 2530 C 2244 2530 2256 2534 2281 2559 C 2306 2584 2310 2596 2310 2640 C 2310 2684 2306 2696 2281 2721 C 2256 2746 2244 2750 2200 2750 C 2156 2750 2144 2746 2119 2721 Z"
        fill="#ffffff" id="path_6" stroke="#00000000" />
    <path
        d="M 1019 2501 C 994 2476 990 2464 990 2420 C 990 2376 994 2364 1019 2339 C 1044 2314 1056 2310 1100 2310 C 1144 2310 1156 2314 1181 2339 C 1206 2364 1210 2376 1210 2420 C 1210 2464 1206 2476 1181 2501 C 1156 2526 1144 2530 1100 2530 C 1056 2530 1044 2526 1019 2501 Z"
        fill="#ffffff" id="path_7" stroke="#00000000" />
    <path
        d="M 1459 2501 C 1434 2476 1430 2464 1430 2420 C 1430 2376 1434 2364 1459 2339 C 1484 2314 1496 2310 1540 2310 C 1584 2310 1596 2314 1621 2339 C 1646 2364 1650 2376 1650 2420 C 1650 2464 1646 2476 1621 2501 C 1596 2526 1584 2530 1540 2530 C 1496 2530 1484 2526 1459 2501 Z"
        fill="#ffffff" id="path_8" stroke="#00000000" />
    <path
        d="M 1899 2501 C 1874 2476 1870 2464 1870 2420 C 1870 2376 1874 2364 1899 2339 C 1924 2314 1936 2310 1980 2310 C 2024 2310 2036 2314 2061 2339 C 2086 2364 2090 2376 2090 2420 C 2090 2464 2086 2476 2061 2501 C 2036 2526 2024 2530 1980 2530 C 1936 2530 1924 2526 1899 2501 Z"
        fill="#ffffff" id="path_9" stroke="#00000000" />
    <path
        d="M 799 2281 C 774 2256 770 2244 770 2200 C 770 2156 774 2144 799 2119 C 824 2094 836 2090 880 2090 C 924 2090 936 2094 961 2119 C 986 2144 990 2156 990 2200 C 990 2244 986 2256 961 2281 C 936 2306 924 2310 880 2310 C 836 2310 824 2306 799 2281 Z"
        fill="#ffffff" id="path_10" stroke="#00000000" />
    <path
        d="M 1239 2281 C 1214 2256 1210 2244 1210 2200 C 1210 2156 1214 2144 1239 2119 C 1264 2094 1276 2090 1320 2090 C 1364 2090 1376 2094 1401 2119 C 1426 2144 1430 2156 1430 2200 C 1430 2244 1426 2256 1401 2281 C 1376 2306 1364 2310 1320 2310 C 1276 2310 1264 2306 1239 2281 Z"
        fill="#ffffff" id="path_11" stroke="#00000000" />
    <path
        d="M 1679 2281 C 1654 2256 1650 2244 1650 2200 C 1650 2156 1654 2144 1679 2119 C 1704 2094 1716 2090 1760 2090 C 1804 2090 1816 2094 1841 2119 C 1866 2144 1870 2156 1870 2200 C 1870 2244 1866 2256 1841 2281 C 1816 2306 1804 2310 1760 2310 C 1716 2310 1704 2306 1679 2281 Z"
        fill="#ffffff" id="path_12" stroke="#00000000" />
    <path
        d="M 2119 2281 C 2094 2256 2090 2244 2090 2200 C 2090 2156 2094 2144 2119 2119 C 2144 2094 2156 2090 2200 2090 C 2244 2090 2256 2094 2281 2119 C 2306 2144 2310 2156 2310 2200 C 2310 2244 2306 2256 2281 2281 C 2256 2306 2244 2310 2200 2310 C 2156 2310 2144 2306 2119 2281 Z"
        fill="#ffffff" id="path_13" stroke="#00000000" />
    <path
        d="M 3439 2941 C 3414 2916 3410 2904 3410 2860 C 3410 2816 3414 2804 3439 2779 C 3464 2754 3476 2750 3520 2750 C 3564 2750 3576 2754 3601 2779 C 3626 2804 3630 2816 3630 2860 C 3630 2904 3626 2916 3601 2941 C 3576 2966 3564 2970 3520 2970 C 3476 2970 3464 2966 3439 2941 Z"
        fill="#ffffff" id="path_14" stroke="#00000000" />
    <path
        d="M 3879 2941 C 3854 2916 3850 2904 3850 2860 C 3850 2816 3854 2804 3879 2779 C 3904 2754 3916 2750 3960 2750 C 4004 2750 4016 2754 4041 2779 C 4066 2804 4070 2816 4070 2860 C 4070 2904 4066 2916 4041 2941 C 4016 2966 4004 2970 3960 2970 C 3916 2970 3904 2966 3879 2941 Z"
        fill="#ffffff" id="path_15" stroke="#00000000" />
    <path
        d="M 3219 2721 C 3194 2696 3190 2684 3190 2640 C 3190 2596 3194 2584 3219 2559 C 3244 2534 3256 2530 3300 2530 C 3344 2530 3356 2534 3381 2559 C 3406 2584 3410 2596 3410 2640 C 3410 2684 3406 2696 3381 2721 C 3356 2746 3344 2750 3300 2750 C 3256 2750 3244 2746 3219 2721 Z"
        fill="#ffffff" id="path_16" stroke="#00000000" />
    <path
        d="M 3659 2721 C 3634 2696 3630 2684 3630 2640 C 3630 2596 3634 2584 3659 2559 C 3684 2534 3696 2530 3740 2530 C 3784 2530 3796 2534 3821 2559 C 3846 2584 3850 2596 3850 2640 C 3850 2684 3846 2696 3821 2721 C 3796 2746 3784 2750 3740 2750 C 3696 2750 3684 2746 3659 2721 Z"
        fill="#ffffff" id="path_17" stroke="#00000000" />
    <path
        d="M 4099 2721 C 4074 2696 4070 2684 4070 2640 C 4070 2596 4074 2584 4099 2559 C 4124 2534 4136 2530 4180 2530 C 4224 2530 4236 2534 4261 2559 C 4286 2584 4290 2596 4290 2640 C 4290 2684 4286 2696 4261 2721 C 4236 2746 4224 2750 4180 2750 C 4136 2750 4124 2746 4099 2721 Z"
        fill="#ffffff" id="path_18" stroke="#00000000" />
    <path
        d="M 3439 2501 C 3414 2476 3410 2464 3410 2420 C 3410 2376 3414 2364 3439 2339 C 3464 2314 3476 2310 3520 2310 C 3564 2310 3576 2314 3601 2339 C 3626 2364 3630 2376 3630 2420 C 3630 2464 3626 2476 3601 2501 C 3576 2526 3564 2530 3520 2530 C 3476 2530 3464 2526 3439 2501 Z"
        fill="#ffffff" id="path_19" stroke="#00000000" />
    <path
        d="M 3879 2501 C 3854 2476 3850 2464 3850 2420 C 3850 2376 3854 2364 3879 2339 C 3904 2314 3916 2310 3960 2310 C 4004 2310 4016 2314 4041 2339 C 4066 2364 4070 2376 4070 2420 C 4070 2464 4066 2476 4041 2501 C 4016 2526 4004 2530 3960 2530 C 3916 2530 3904 2526 3879 2501 Z"
        fill="#ffffff" id="path_20" stroke="#00000000" />
    <path
        d="M 4319 2501 C 4294 2476 4290 2464 4290 2420 C 4290 2376 4294 2364 4319 2339 C 4344 2314 4356 2310 4400 2310 C 4444 2310 4456 2314 4481 2339 C 4506 2364 4510 2376 4510 2420 C 4510 2464 4506 2476 4481 2501 C 4456 2526 4444 2530 4400 2530 C 4356 2530 4344 2526 4319 2501 Z"
        fill="#ffffff" id="path_21" stroke="#00000000" />
    <path
        d="M 3219 2281 C 3194 2256 3190 2244 3190 2200 C 3190 2156 3194 2144 3219 2119 C 3244 2094 3256 2090 3300 2090 C 3344 2090 3356 2094 3381 2119 C 3406 2144 3410 2156 3410 2200 C 3410 2244 3406 2256 3381 2281 C 3356 2306 3344 2310 3300 2310 C 3256 2310 3244 2306 3219 2281 Z"
        fill="#ffffff" id="path_22" stroke="#00000000" />
    <path
        d="M 3659 2281 C 3634 2256 3630 2244 3630 2200 C 3630 2156 3634 2144 3659 2119 C 3684 2094 3696 2090 3740 2090 C 3784 2090 3796 2094 3821 2119 C 3846 2144 3850 2156 3850 2200 C 3850 2244 3846 2256 3821 2281 C 3796 2306 3784 2310 3740 2310 C 3696 2310 3684 2306 3659 2281 Z"
        fill="#ffffff" id="path_23" stroke="#00000000" />
    <path
        d="M 4099 2281 C 4074 2256 4070 2244 4070 2200 C 4070 2156 4074 2144 4099 2119 C 4124 2094 4136 2090 4180 2090 C 4224 2090 4236 2094 4261 2119 C 4286 2144 4290 2156 4290 2200 C 4290 2244 4286 2256 4261 2281 C 4236 2306 4224 2310 4180 2310 C 4136 2310 4124 2306 4099 2281 Z"
        fill="#ffffff" id="path_24" stroke="#00000000" />
    <path
        d="M 4539 2281 C 4514 2256 4510 2244 4510 2200 C 4510 2156 4514 2144 4539 2119 C 4564 2094 4576 2090 4620 2090 C 4664 2090 4676 2094 4701 2119 C 4726 2144 4730 2156 4730 2200 C 4730 2244 4726 2256 4701 2281 C 4676 2306 4664 2310 4620 2310 C 4576 2310 4564 2306 4539 2281 Z"
        fill="#ffffff" id="path_25" stroke="#00000000" />
</svg>
